<svg xmlns="http://www.w3.org/2000/svg" viewBox="0 0 100 100"><title>logo</title><path d="M70.45,66.75l3.2-3.2a5.9,5.9,0,0,0,0-8.35l-20-20A5.77,5.77,0,0,1,52,31.14V15.74a5.74,5.74,0,0,1,1.7-4.11L61.63,3.7A5.74,5.74,0,0,1,65.74,2h68.52a5.74,5.74,0,0,1,4.11,1.7l7.93,7.93a5.74,5.74,0,0,1,1.7,4.11v8.83a5.8,5.8,0,0,1-1.64,4.05l-6.86,7.07V22a9.74,9.74,0,0,0-2.87-6.94L135,13.37A9.74,9.74,0,0,0,128,10.5H72a9.74,9.74,0,0,0-6.94,2.87l-1.68,1.68A9.74,9.74,0,0,0,60.5,22v2.9a9.77,9.77,0,0,0,2.87,6.94L80.2,48.65a5.9,5.9,0,0,0,8.35,0l3.2-3.2V64.84a1.9,1.9,0,0,1-1.91,1.91Z" transform="translate(-50)" style="fill:#231f20"/><path d="M134.26,4A3.8,3.8,0,0,1,137,5.12L144.88,13a3.8,3.8,0,0,1,1.12,2.7v8.83a3.76,3.76,0,0,1-1.08,2.65l-3.42,3.53V22A11.75,11.75,0,0,0,138,13.63L136.37,12A11.75,11.75,0,0,0,128,8.5H72A11.75,11.75,0,0,0,63.63,12L62,13.63A11.75,11.75,0,0,0,58.5,22v2.9A11.74,11.74,0,0,0,62,33.24L78.78,50.07a7.92,7.92,0,0,0,11,.2V64.75H75.27a7.92,7.92,0,0,0-.2-11l-19.95-20A3.77,3.77,0,0,1,54,31.14V15.74A3.8,3.8,0,0,1,55.12,13L63,5.12A3.8,3.8,0,0,1,65.74,4h68.52m0-4H65.74a7.8,7.8,0,0,0-5.53,2.29l-7.92,7.92A7.8,7.8,0,0,0,50,15.74v15.4a7.78,7.78,0,0,0,2.29,5.52l19.95,20a3.92,3.92,0,0,1,0,5.53L67,67.42a.78.78,0,0,0,.55,1.33H89.84a3.91,3.91,0,0,0,3.91-3.91V42.51a.78.78,0,0,0-.79-.78.75.75,0,0,0-.54.23l-5.28,5.28a3.92,3.92,0,0,1-5.53,0L64.79,30.41a7.78,7.78,0,0,1-2.29-5.52V22a7.8,7.8,0,0,1,2.29-5.53l1.67-1.67A7.8,7.8,0,0,1,72,12.5h56a7.8,7.8,0,0,1,5.53,2.29l1.67,1.67A7.8,7.8,0,0,1,137.5,22V38.7a.78.78,0,0,0,.79.78.75.75,0,0,0,.55-.24l9-9.23a7.83,7.83,0,0,0,2.2-5.44V15.74a7.8,7.8,0,0,0-2.29-5.53l-7.92-7.92A7.8,7.8,0,0,0,134.26,0Z" transform="translate(-50)" style="fill:#231f20"/><path d="M65.74,98a5.74,5.74,0,0,1-4.11-1.7L53.7,88.37A5.74,5.74,0,0,1,52,84.26V75.43a5.8,5.8,0,0,1,1.64-4.05l6.86-7.07V78A9.74,9.74,0,0,0,63.37,85l1.68,1.68A9.74,9.74,0,0,0,72,89.5h56A9.74,9.74,0,0,0,135,86.63L136.63,85A9.74,9.74,0,0,0,139.5,78v-2.9a9.77,9.77,0,0,0-2.87-6.94L119.8,51.35a5.9,5.9,0,0,0-8.35,0l-3.2,3.2V35.16a1.9,1.9,0,0,1,1.91-1.91h19.39l-3.2,3.2a5.9,5.9,0,0,0,0,8.35l20,20a5.77,5.77,0,0,1,1.7,4.11v15.4a5.74,5.74,0,0,1-1.7,4.11l-7.93,7.93a5.74,5.74,0,0,1-4.11,1.7Z" transform="translate(-50)" style="fill:#231f20"/><path d="M124.73,35.25a7.92,7.92,0,0,0,.2,11l19.95,20A3.77,3.77,0,0,1,146,68.86v15.4a3.8,3.8,0,0,1-1.12,2.7L137,94.88a3.8,3.8,0,0,1-2.7,1.12H65.74A3.8,3.8,0,0,1,63,94.88L55.12,87A3.8,3.8,0,0,1,54,84.26V75.43a3.76,3.76,0,0,1,1.08-2.65l3.42-3.53V78A11.75,11.75,0,0,0,62,86.37L63.63,88A11.75,11.75,0,0,0,72,91.5h56A11.75,11.75,0,0,0,136.37,88L138,86.37A11.75,11.75,0,0,0,141.5,78v-2.9A11.74,11.74,0,0,0,138,66.76L121.22,49.93a7.92,7.92,0,0,0-11-.2V35.25h14.48m7.76-4H110.16a3.91,3.91,0,0,0-3.91,3.91V57.49a.78.78,0,0,0,.79.78.75.75,0,0,0,.54-.23l5.28-5.28a3.92,3.92,0,0,1,5.53,0l16.82,16.83a7.78,7.78,0,0,1,2.29,5.52V78a7.8,7.8,0,0,1-2.29,5.53l-1.67,1.67A7.8,7.8,0,0,1,128,87.5H72a7.8,7.8,0,0,1-5.53-2.29l-1.67-1.67A7.8,7.8,0,0,1,62.5,78V61.3a.78.78,0,0,0-.79-.78.75.75,0,0,0-.55.24L52.2,70A7.83,7.83,0,0,0,50,75.43v8.83a7.8,7.8,0,0,0,2.29,5.53l7.92,7.92A7.8,7.8,0,0,0,65.74,100h68.52a7.8,7.8,0,0,0,5.53-2.29l7.92-7.92A7.8,7.8,0,0,0,150,84.26V68.86a7.78,7.78,0,0,0-2.29-5.52l-20-20a3.92,3.92,0,0,1,0-5.53L133,32.58a.78.78,0,0,0-.55-1.33Z" transform="translate(-50)" style="fill:#231f20"/></svg>