<svg xmlns="http://www.w3.org/2000/svg" viewBox="0 0 200 100"><title>logo</title><path d="M45,4V96H31V4H45m4-4H27V100H49V0Z" transform="translate(0)" style="fill:#231f20"/><path d="M72.74,4c11.5,0,20.36,3,26.31,9,5,5,7.4,11.53,7.4,20v.29c0,7.14-1.71,13-5.09,17.33a30.55,30.55,0,0,1-13.73,9.92l-4.79,1.78,2.88,4.22,14.73,21.53L97.74,96H89.87L69.63,65.77,68.45,64h-9l-5.08-5.71,5.08-5.72H71.31c6.41,0,11.5-1.63,15.15-4.86a16.94,16.94,0,0,0,5.71-13.28v-.29c0-6-2.06-10.69-6.11-13.86-3.76-2.94-8.87-4.42-15.18-4.42H59.49L54.33,9.93,59.49,4H72.74m0-4H57.67L49,9.93l8.65,9.93H70.88q8.15,0,12.72,3.57t4.57,10.71v.29a13.07,13.07,0,0,1-4.36,10.28q-4.36,3.87-12.5,3.86H57.67L49,58.29,57.67,68h8.64l21.43,32H100.6l4.28-12.53L89,64.29a34.31,34.31,0,0,0,15.5-11.22q5.92-7.64,5.93-19.78V33q0-14.28-8.57-22.86Q91.74,0,72.74,0Z" transform="translate(0)" style="fill:#231f20"/><path d="M138.57,58.29" transform="translate(0)" style="fill:none;stroke:#231f20;stroke-miterlimit:10;stroke-width:4px"/><path d="M134.57,4V96h-14V4h14m4-4h-22V100h22V0Z" transform="translate(0)" style="fill:#231f20"/><path d="M162.29,4c11.5,0,20.36,3,26.31,9,5,5,7.4,11.53,7.4,20v.29c0,7.87-1.46,12.87-5,17.25C180.31,63.62,164.26,64,162.46,64H149l-5.08-5.71L149,52.57h11.85c6.41,0,11.5-1.63,15.15-4.86a17,17,0,0,0,5.7-13.28v-.29c0-6-2.05-10.69-6.11-13.86-3.75-2.94-8.86-4.42-15.17-4.42H149l-5.17-5.93L149,4h13.25m0-4H147.21l-8.64,9.93,8.64,9.93h13.22q8.15,0,12.71,3.57t4.57,10.71v.29a13.06,13.06,0,0,1-4.35,10.28q-4.37,3.87-12.5,3.86H147.21l-8.64,9.72L147.21,68h15.25c2,0,19.77-.41,31.61-14.93C198.61,47.5,200,41.38,200,33.29V33q0-14.28-8.57-22.86Q181.29,0,162.29,0Z" transform="translate(0)" style="fill:#231f20"/><path d="M18,4V96H4V4H18m4-4H0V100H22V0Z" transform="translate(0)" style="fill:#231f20"/></svg>